<?xml version="1.0" encoding="iso-8859-1"?>
<!-- Generator: Adobe Illustrator 29.1.0, SVG Export Plug-In . SVG Version: 9.03 Build 55587)  -->
<svg version="1.1" id="Layer_1" xmlns="http://www.w3.org/2000/svg" xmlns:xlink="http://www.w3.org/1999/xlink" x="0px" y="0px"
	 viewBox="0 0 499.9999695 196.2681274" style="enable-background:new 0 0 499.9999695 196.2681274;" xml:space="preserve">
<g>
	<path style="fill:#333333;" d="M477.9902954,196.2681274H22.0096741C9.8540668,196.2681274,0,186.4140625,0,174.2584534V22.0096741
		C0,9.8540668,9.8540668,0,22.0096741,0h455.9806213c12.1556091,0,22.0096741,9.8540668,22.0096741,22.0096741v152.2487793
		C499.9999695,186.4140625,490.1459045,196.2681274,477.9902954,196.2681274z"/>
	<g>
		<g>
			<path style="fill:#FFDD2D;" d="M66.0862656,47.6912079h110.0571976v55.3507462
				c0,14.1894989-7.5696869,27.3015213-19.8574524,34.3970108l-35.1711197,20.3093109l-35.1710587-20.3093109
				c-12.2880173-7.0954895-19.8575668-20.2075119-19.8575668-34.3970108V47.6912079z"/>
			<path style="fill-rule:evenodd;clip-rule:evenodd;fill:#333333;" d="M96.2908859,76.8236847v17.2152481
				c2.3541183-2.6583481,6.6343002-4.4575195,11.5281525-4.4575195h5.3182373v20.0125351
				c0,5.3242645-1.4466171,9.9845352-3.5930328,12.5478897h23.1332169c-2.141922-2.5659561-3.5852356-7.220314-3.5852356-12.5377274
				V89.5814133h5.3184814c4.8938446,0,9.1739044,1.7991714,11.5281372,4.4575195V76.8236847H96.2908859z"/>
		</g>
		<g>
			<g>
				<path style="fill:#FFFFFF;" d="M202.0926819,122.139534V76.8262787h46.0258331v10.3564301h-32.3014221v6.4747086h15.9888916
					c11.3283081,0,19.7438812,2.5891037,19.7438812,14.2400818c0,11.6529236-8.4155731,14.2420349-19.7438812,14.2420349
					H202.0926819z M215.8170929,104.0138397v7.7673187h16.0532379c4.6615601,0,5.7611389-0.9046249,5.7611389-3.8836594
					c0-2.9770813-1.0995789-3.8836594-5.7611389-3.8836594H215.8170929z"/>
				<path style="fill:#FFFFFF;" d="M327.5279846,105.3083954v16.8311386h-13.7243958V76.8262787h13.7243958v16.5074997h22.4616699
					V76.8262787h13.7243958v45.3132553h-13.7243958v-16.8311386H327.5279846z"/>
				<path style="fill:#FFFFFF;" d="M385.8263245,105.0490952v17.0904388h-13.7244263V76.8262787h13.7244263V93.721756h8.2205811
					l14.306366-16.8954773h15.535614l-17.9307251,21.1671143v0.8422394l18.8373108,23.3039017h-17.025116l-13.7877808-17.0904388
					H385.8263245z"/>
			</g>
			<g>
				<path style="fill:#FFFFFF;" d="M291.9572144,115.4718018h-21.4273682l-2.3951111,6.6677322h-14.3707123l17.9316864-45.3132553
					h19.8082275l17.866394,45.3132553H294.352356L291.9572144,115.4718018z M288.2675476,105.1153793l-6.3440857-17.8663864
					h-1.165863l-6.4727783,17.8663864H288.2675476z"/>
			</g>
		</g>
	</g>
</g>
</svg>
