<?xml version="1.0" encoding="iso-8859-1"?>
<!-- Generator: Adobe Illustrator 29.1.0, SVG Export Plug-In . SVG Version: 9.03 Build 55587)  -->
<svg version="1.1" id="Layer_1" xmlns="http://www.w3.org/2000/svg" xmlns:xlink="http://www.w3.org/1999/xlink" x="0px" y="0px"
	 viewBox="0 0 500 195.9967651" style="enable-background:new 0 0 500 195.9967651;" xml:space="preserve">
<g>
	<path style="fill:#333333;" d="M478.020752,195.9967651H21.97925C9.8404455,195.9967651,0,186.156311,0,174.0175018V21.9792538
		C0,9.8404465,9.8404455,0,21.97925,0H478.020752C490.1595459,0,500,9.8404465,500,21.9792538v152.0382538
		C500,186.156311,490.1595459,195.9967651,478.020752,195.9967651z"/>
	<g>
		<g>
			<path style="fill:#FFDD2D;" d="M65.9428864,47.6256485H175.847168v55.2738342
				c0,14.1697845-7.5591736,27.263588-19.8298798,34.3492203L120.89505,157.5297852L85.7728577,137.248703
				c-12.2709427-7.0856323-19.8299713-20.1794357-19.8299713-34.3492203V47.6256485z"/>
			<path style="fill-rule:evenodd;clip-rule:evenodd;fill:#333333;" d="M96.1055222,76.7176361v17.19133
				c2.350853-2.6546555,6.6250839-4.4513321,11.5121384-4.4513321h5.3108521v19.9847488
				c0,5.316864-1.4446106,9.9706573-3.5880356,12.5304565h23.1010818c-2.1389618-2.5623932-3.5802612-7.210289-3.5802612-12.5203094
				V89.457634h5.3110962c4.8870392,0,9.1611633,1.7966766,11.5121307,4.4513321v-17.19133H96.1055222z"/>
		</g>
		<g>
			<path style="fill:#FFFFFF;" d="M251.8051758,110.0126038c0,9.4364548-6.9845581,11.9594269-18.943985,11.9594269h-31.1008301
				V76.7165146h30.5836029c11.5053711,0,18.4899292,2.5190201,18.4899292,11.9594269
				c0,5.7526855-2.7796021,9.0495224-7.4346619,10.1511002v0.7738724
				C248.6346893,100.572197,251.8051758,103.9322052,251.8051758,110.0126038z M215.4688873,87.0610809v7.1109085h16.7447815
				c4.0746613,0,5.0419922-0.971283,5.0419922-3.5574265s-0.9041595-3.5534821-5.0419922-3.5534821H215.4688873z
				 M215.4688873,104.5165558v7.1109085h17.3923035c4.0707092,0,5.0419922-0.971283,5.0419922-3.5574265
				s-0.971283-3.5534821-5.0419922-3.5534821H215.4688873z"/>
			<path style="fill:#FFFFFF;" d="M291.6472168,115.3112335h-21.3998413l-2.3926697,6.6607971H253.502594l17.9095459-45.2555161
				h19.7810059l17.8463745,45.2555161h-14.9996338L291.6472168,115.3112335z M287.9634399,104.9666672l-6.3370361-17.8424072
				h-1.1647339l-6.4634094,17.8424072H287.9634399z"/>
			<path style="fill:#FFFFFF;" d="M363.8926697,121.9720306h-11.7698975L327.1023254,95.78685h-0.647522v26.1851807h-12.4134827
				V76.7165146h11.7698975l25.0204468,26.2483597h0.647522V76.7165146h12.4134827V121.9720306z"/>
			<path style="fill:#FFFFFF;" d="M385.9774475,104.9034958v17.0685349h-13.7085266V76.7165146h13.7085266v16.8711243h8.2085571
				l14.2889099-16.8711243h15.5168762l-17.9056091,21.1392441v0.8409882l18.8137207,23.2752838h-17.0053711l-13.771698-17.0685349
				H385.9774475z"/>
		</g>
	</g>
</g>
</svg>
