<?xml version="1.0" encoding="iso-8859-1"?>
<!-- Generator: Adobe Illustrator 29.1.0, SVG Export Plug-In . SVG Version: 9.03 Build 55587)  -->
<svg version="1.1" id="Layer_1" xmlns="http://www.w3.org/2000/svg" xmlns:xlink="http://www.w3.org/1999/xlink" x="0px" y="0px"
	 viewBox="0 0 500 153.0888062" style="enable-background:new 0 0 500 153.0888062;" xml:space="preserve">
<g>
	<g>
		<g>
			<g>
				<path style="fill:#FFDD2D;" d="M0,0h153.0890045v76.9926071c0,19.7375183-10.5294037,37.9762802-27.6216278,47.8460693
					l-48.9228363,28.2501297l-48.9227753-28.2501297C10.5291948,114.9688873,0,96.7301254,0,76.9926071V0z"/>
				<path style="fill-rule:evenodd;clip-rule:evenodd;fill:#333333;" d="M42.0144539,40.5231094v23.9463348
					c3.2745667-3.6977539,9.2282829-6.2003937,16.0356026-6.2003937h7.397644v27.8373566
					c0,7.4060287-2.0122337,13.8884354-4.9978828,17.4540634h32.178196
					c-2.9794083-3.5692368-4.9870453-10.0434341-4.9870453-17.4399338V58.2690506h7.3979797
					c6.8073196,0,12.7608719,2.5026398,16.0355988,6.2003937V40.5231094H42.0144539z"/>
			</g>
		</g>
	</g>
	<g>
		<path style="fill:#333333;" d="M258.8927612,86.9019318c0,13.1442413-9.7289429,16.6585388-26.3874664,16.6585388h-43.3209991
			V40.5231094h42.6005402c16.026062,0,25.7550201,3.5088005,25.7550201,16.6585388
			c0,8.0130386-3.8717957,12.6052704-10.3559113,14.1396866v1.0779343
			C254.4765167,73.7521896,258.8927612,78.4324188,258.8927612,86.9019318z M208.2791901,54.9322777v9.9049263h23.3241577
			c5.6756592,0,7.0230865-1.3529205,7.0230865-4.9552116s-1.2594299-4.9497147-7.0230865-4.9497147H208.2791901z
			 M208.2791901,79.246376v9.9049225h24.2261047c5.670166,0,7.0230865-1.3529205,7.0230865-4.9552078
			c0-3.6022949-1.3529205-4.9497147-7.0230865-4.9497147H208.2791901z"/>
		<path style="fill:#333333;" d="M314.3895569,94.2825012h-29.8082581l-3.3328247,9.2779694h-19.991333l24.9465637-63.0373611
			h27.5534058l24.858551,63.0373611h-20.89328L314.3895569,94.2825012z M309.2583618,79.8733368l-8.8269958-24.8530617h-1.622406
			l-9.0029602,24.8530617H309.2583618z"/>
		<path style="fill:#333333;" d="M415.021759,103.5604706h-16.3945618l-34.8514709-36.4738922h-0.901947v36.4738922h-17.2910156
			V40.5231094h16.3945618l34.8515015,36.5618896h0.901947V40.5231094h17.2909851V103.5604706z"/>
		<path style="fill:#333333;" d="M445.7841187,79.7853394v23.7751312h-19.0948792V40.5231094h19.0948792v23.500145h11.4338684
			l19.9033203-23.500145h21.6137695l-24.9410706,29.4452972v1.1714325L500,103.5604706h-23.6871338l-19.1828918-23.7751312
			H445.7841187z"/>
	</g>
</g>
</svg>
