<svg viewBox="0 0 541 125" fill="none" xmlns="http://www.w3.org/2000/svg"><path d="M490.962 63.9159C490.962 49.6225 501.723 39.644 515.981 39.644C530.239 39.644 541 49.7573 541 63.9159C541 77.9396 530.239 88.1877 515.981 88.1877C501.723 88.1877 490.962 77.9396 490.962 63.9159ZM526.742 63.9159C526.742 57.1737 522.572 52.3193 515.981 52.3193C509.39 52.3193 505.22 57.1737 505.22 63.9159C505.22 70.6581 509.39 75.5124 515.981 75.5124C522.572 75.5124 526.742 70.6581 526.742 63.9159ZM481.546 52.589C482.488 54.4768 482.891 56.4995 482.891 58.657C482.891 63.9159 480.201 68.5006 475.897 72.2762C481.815 75.2427 485.312 81.9849 485.312 88.5922C485.312 100.863 475.493 108.954 460.563 108.954C445.632 108.954 435.813 100.863 435.813 88.5922C435.813 81.9849 439.31 75.2427 445.228 72.2762C440.79 68.5006 438.234 63.9159 438.234 58.657C438.234 48.0043 446.574 40.0486 459.756 40.0486C467.557 40.0486 469.844 41.397 474.283 41.397C477.242 41.397 479.26 40.9925 482.891 39.1047C484.102 38.4304 485.043 38.1607 485.851 38.1607C487.599 38.1607 488.541 39.9137 488.541 42.2061C488.675 46.9256 486.389 50.836 481.546 52.589ZM471.323 88.1877C471.323 82.6591 467.154 78.8835 460.563 78.8835C453.972 78.8835 449.802 82.6591 449.802 88.1877C449.802 93.4466 454.375 97.4919 460.563 97.4919C466.75 97.4919 471.323 93.3118 471.323 88.1877ZM451.954 59.466C451.954 64.0507 455.855 67.8263 460.563 67.8263C465.405 67.8263 469.171 64.0507 469.171 59.466C469.171 54.4768 465.674 51.1057 460.563 51.1057C455.451 51.2406 451.954 54.6117 451.954 59.466ZM429.356 64.8598V81.8501C429.356 85.0863 428.146 86.5696 424.648 86.5696H419.941C416.443 86.5696 415.233 85.2212 415.233 81.8501V65.2643C415.233 61.0842 414.56 58.1176 413.081 56.0949C411.466 54.0723 409.045 52.9935 405.951 52.9935C402.992 52.9935 400.302 54.0723 398.553 56.0949C396.939 57.9828 395.863 61.0842 395.863 65.1295V81.7152C395.863 85.2212 394.518 86.4348 391.155 86.4348H386.447C383.219 86.4348 381.74 85.2212 381.74 81.7152V43.6893C381.74 41.5318 382.816 40.4531 384.43 40.4531C386.851 40.4531 390.214 42.4757 392.769 46.3862C396.536 41.9364 402.32 39.644 407.969 39.644C414.829 39.644 420.344 42.0712 423.976 46.2514C427.473 50.4315 429.356 55.8253 429.356 64.8598ZM355.914 26.5642C355.914 22.2492 359.411 18.8781 363.984 18.8781C368.289 18.8781 372.055 22.2492 372.055 26.5642C372.055 30.7444 368.289 34.2503 363.984 34.2503C359.411 34.2503 355.914 30.7444 355.914 26.5642ZM356.855 81.8501V46.1165C356.855 42.8803 358.066 41.397 361.563 41.397H366.271C369.768 41.397 370.979 42.7454 370.979 46.1165V81.8501C370.979 85.0863 369.768 86.5696 366.271 86.5696H361.563C358.066 86.4348 356.855 85.0863 356.855 81.8501ZM331.971 81.8501V36.9472C331.971 25.7551 338.293 19.2826 343.404 19.2826C345.018 19.2826 346.094 20.3614 346.094 22.5189V81.8501C346.094 85.356 344.749 86.5696 341.387 86.5696H336.679C333.451 86.4348 331.971 85.2212 331.971 81.8501ZM273.728 63.9159C273.728 49.6225 284.489 39.644 298.747 39.644C313.005 39.644 323.766 49.7573 323.766 63.9159C323.766 77.9396 313.005 88.1877 298.747 88.1877C284.489 88.1877 273.728 77.9396 273.728 63.9159ZM309.642 63.9159C309.642 57.1737 305.472 52.3193 298.881 52.3193C292.29 52.3193 288.121 57.1737 288.121 63.9159C288.121 70.6581 292.29 75.5124 298.881 75.5124C305.472 75.5124 309.642 70.6581 309.642 63.9159ZM266.599 46.1165V84.2773C266.599 86.4348 265.523 87.5135 263.909 87.5135C261.488 87.5135 258.125 85.4909 255.704 81.7152C252.206 85.8954 246.826 88.4574 240.773 88.4574C234.72 88.4574 229.878 86.2999 226.246 82.9288C222.076 78.8835 219.789 72.5459 219.789 63.5113V46.1165C219.789 42.8803 221 41.397 224.497 41.397H229.205C232.702 41.397 233.913 42.7454 233.913 46.1165V62.1629C233.913 67.5567 234.855 70.5232 236.603 72.411C238.083 74.0291 240.235 74.8382 242.925 74.8382C245.615 74.8382 248.171 73.7595 249.651 72.0065C251.399 70.1187 252.341 67.0173 252.341 62.5674V46.1165C252.341 42.6106 253.686 41.397 257.049 41.397H261.757C265.119 41.397 266.599 42.6106 266.599 46.1165ZM210.105 22.5189V84.2773C210.105 86.4348 209.029 87.5135 207.414 87.5135C204.993 87.5135 201.631 85.4909 199.209 81.7152C196.25 85.2212 190.197 88.3226 183.203 88.3226C169.214 88.3226 159.798 77.9396 159.798 64.0507C159.798 50.2967 169.348 39.7789 183.203 39.7789C188.314 39.7789 192.753 41.397 196.116 43.6893V37.082C196.116 25.89 202.438 19.4175 207.549 19.4175C209.163 19.2826 210.105 20.3614 210.105 22.5189ZM195.981 63.9159C195.981 56.904 191.139 52.3193 185.086 52.3193C178.898 52.3193 174.056 56.904 174.056 63.9159C174.056 70.9277 178.898 75.5124 185.086 75.5124C191.139 75.5124 195.981 70.9277 195.981 63.9159Z" fill="#58CC02"/><path d="M41.9673 113.943C43.1779 111.111 46.4061 109.763 49.2308 110.976L57.3015 114.347C60.1262 115.561 61.4713 118.797 60.2607 121.629C59.0501 124.461 55.8218 125.809 52.9971 124.595L44.9265 121.224C42.1018 120.011 40.7567 116.775 41.9673 113.943Z" fill="#F49000"/><path d="M132.761 80.9061C130.071 79.5577 126.709 80.6364 125.363 83.3333L121.328 91.1542C119.983 93.8511 121.059 97.2222 123.749 98.5706C126.439 99.9191 129.802 98.8403 131.147 96.1434L135.183 88.3225C136.528 85.6256 135.452 82.2545 132.761 80.9061Z" fill="#F49000"/><path d="M133.165 17.1251C132.223 13.754 128.323 12.4055 125.498 14.2933L107.205 26.699L101.017 9.57382C100.345 7.68601 99.403 6.06789 98.0579 4.58461C92.543 -1.21367 83.3963 -1.48335 77.6123 3.91039C69.0037 12.001 62.6817 16.8554 58.7809 18.2038C54.8801 19.6871 46.8095 20.0916 34.7036 19.4174C32.8204 19.2826 30.9373 19.5522 29.0541 20.3613C21.5216 23.0582 17.7553 31.2836 20.4455 38.8349L26.7675 56.0949L4.57329 58.3872C1.21053 58.7917 -0.941633 62.4325 0.53798 65.5339C7.12898 80.5015 22.5977 89.6709 39.2769 88.1876C49.6342 105.448 71.0213 113.673 90.6598 106.526C110.298 99.3796 121.463 79.288 118.234 59.3311C131.82 49.7572 137.604 32.9018 133.165 17.1251Z" fill="#58CC02"/><path d="M105.187 36.4076L101.69 26.6989C99.4029 20.6309 93.888 16.7204 87.835 16.1811C87.1624 14.9675 86.2209 13.7539 85.1448 12.81C84.6067 12.2706 83.3962 12.5403 82.9926 13.4842L81.513 16.9901H81.3785C80.706 15.1023 79.6299 13.2145 77.8812 11.8661C77.3432 11.1919 76.1326 11.5964 75.7291 12.5403L69.0036 28.9912C66.3134 32.632 61.3365 34.385 56.8976 33.1714L41.2945 25.0808C40.4874 24.5414 39.6803 24.9459 39.4113 26.0247C39.0078 28.1822 39.4113 30.3397 40.2184 32.3623H40.0839L36.4521 30.4745C35.5105 29.9351 34.4344 30.4745 34.2999 31.5532C34.0309 33.1714 34.1654 34.7895 34.569 36.4076C30.8027 40.7226 29.3231 46.7906 31.4752 52.5888L34.9725 62.2976C38.0662 70.6579 47.2129 74.838 55.5525 71.8715L56.7631 71.467C62.9506 69.1746 66.8514 63.5112 67.2549 57.3084C72.0973 55.5554 75.4601 54.3418 77.6122 53.5328C81.9165 57.8477 88.5075 59.6007 94.5605 57.4432L95.6366 57.0387C103.976 53.9373 108.146 44.7679 105.187 36.4076Z" fill="#89E219"/><path d="M69.2729 47.1952C72.3666 46.1164 75.8639 47.7345 77.0745 50.8359L80.5717 60.275C81.6478 63.3764 80.0337 66.8823 76.94 68.0959C73.8462 69.1747 70.349 67.5565 69.1384 64.4551L65.6411 55.0161C64.565 51.7798 66.1791 48.2739 69.2729 47.1952Z" fill="#F49000"/><path d="M70.0796 49.3527C72.5007 48.4088 75.191 49.7572 76.1325 52.1844L78.4192 58.522C79.3608 60.9492 78.0157 63.6461 75.5945 64.59C73.1733 65.5339 70.4831 64.1855 69.5415 61.7583L67.2549 55.4206C66.4478 52.9934 67.6584 50.2966 70.0796 49.3527Z" fill="#B66E28"/><path d="M63.2195 54.8813C62.547 50.9709 64.8337 47.0604 69.0035 45.4423C72.6353 44.0938 77.0741 45.712 78.9572 49.0831L79.0917 49.4876L71.6937 53.8026L63.354 55.2859L63.2195 54.8813Z" fill="#FFC200"/><path d="M67.7932 50.0269C67.3896 50.0269 67.1206 49.8921 66.8516 49.6224C66.4481 49.083 66.4481 48.4088 66.9861 47.8694C68.1967 46.7907 69.6763 46.3862 71.2904 46.3862C71.963 46.3862 72.501 46.9255 72.501 47.5998C72.501 48.274 71.963 48.8134 71.2904 48.8134C70.2144 48.8134 69.4073 49.083 68.6002 49.7573C68.3312 49.8921 68.0622 50.0269 67.7932 50.0269Z" fill="#FFDE00"/><path d="M99.4028 35.4638L97.5197 30.3398C95.3675 24.2718 88.5075 21.0356 82.4545 23.3279C76.4016 25.6203 73.1733 32.3624 75.46 38.4304L77.8812 45.0377C78.5537 46.9255 79.7643 48.5437 81.1094 49.8921C87.5659 43.8241 93.7534 39.1046 99.4028 35.4638Z" fill="white"/><path d="M61.4711 57.0389C61.7401 55.151 61.6056 53.1284 60.7985 51.2406L58.3773 44.6332C56.2252 38.5653 49.3652 35.329 43.3122 37.6214C37.2592 39.9137 34.031 46.6559 36.3177 52.7239L38.2008 57.7131C44.7918 56.7692 52.7279 56.3646 61.4711 57.0389Z" fill="white"/><path d="M46.2713 56.904C49.3651 56.7692 52.7278 56.6343 56.2251 56.7692C56.8976 55.4207 57.0321 53.9375 56.4941 52.4542L54.4764 46.7908C53.4004 43.8242 50.1721 42.3409 47.3474 43.4197C46.5403 43.6894 45.8678 44.0939 45.3298 44.6333C46.2713 45.0378 46.9439 45.712 47.3474 46.7908C48.02 48.6786 47.0784 50.7012 45.1952 51.3754C44.9262 51.5103 44.6572 51.5103 44.3882 51.5103L46.0023 56.2298C46.1368 56.4995 46.2713 56.6343 46.2713 56.904Z" fill="#122431"/><path d="M84.8758 46.521C87.4315 44.2287 89.9872 42.206 92.4084 40.3182C92.4084 40.0485 92.2739 39.644 92.1394 39.3743L90.1217 33.7109C89.0456 30.7443 85.8174 29.261 82.9927 30.3398C82.0511 30.7443 81.244 31.2837 80.706 31.9579C81.5131 32.3624 82.1856 33.0366 82.4546 33.9805C83.1272 35.8684 82.1856 37.891 80.3025 38.5652C80.168 38.5652 80.168 38.5652 80.0334 38.5652L81.6476 43.1499C82.1856 44.768 83.3962 45.9816 84.8758 46.521Z" fill="#122431"/><path d="M66.448 83.0637L76.5363 79.4229C77.0743 79.288 77.6124 79.5577 77.6124 80.0971C77.6124 82.794 75.8637 85.2212 73.1735 86.1651C70.4833 87.109 67.5241 86.4347 65.91 84.2772C65.641 83.8727 65.91 83.1985 66.448 83.0637Z" fill="#89E219"/><path d="M84.0687 76.5911L94.157 72.9503C94.695 72.8154 95.2331 73.0851 95.2331 73.6245C95.2331 76.3214 93.4844 78.7486 90.7942 79.6925C88.104 80.6364 85.1448 79.9622 83.5307 77.8047C83.3962 77.4001 83.5307 76.7259 84.0687 76.5911Z" fill="#89E219"/><path d="M78.4192 88.3225L88.5075 84.6817C89.0455 84.5469 89.5836 84.8166 89.5836 85.356C89.5836 88.0528 87.8349 90.48 85.1447 91.4239C82.4545 92.3678 79.4953 91.6936 77.8812 89.5361C77.6122 89.1316 77.8812 88.5922 78.4192 88.3225Z" fill="#89E219"/></svg>